<?xml version="1.0" encoding="UTF-8" standalone="no"?>
<svg
   xmlns:dc="http://purl.org/dc/elements/1.1/"
   xmlns:cc="http://creativecommons.org/ns#"
   xmlns:rdf="http://www.w3.org/1999/02/22-rdf-syntax-ns#"
   xmlns:svg="http://www.w3.org/2000/svg"
   xmlns="http://www.w3.org/2000/svg"
   width="32"
   height="32"
   viewBox="0 0 8.4666667 8.4666667"
   version="1.1"
   id="svg922">
  <defs
     id="defs916" />
  <metadata
     id="metadata919">
    <rdf:RDF>
      <cc:Work
         rdf:about="">
        <dc:format>image/svg+xml</dc:format>
        <dc:type
           rdf:resource="http://purl.org/dc/dcmitype/StillImage" />
        <dc:title></dc:title>
      </cc:Work>
    </rdf:RDF>
  </metadata>
  <g
     id="layer1">
    <g
       id="g1552"
       transform="matrix(0.27295439,0,0,0.27295439,3.2637416,2.4130865)">
      <g
         id="g885"
         transform="matrix(0.1502951,0,0,0.1502951,-20.512484,-6.2695424)">
        <path
           d="m 168.92956,145.50811 h -7.42 v -27.66 h 7.36 v 1.54 a 13.93,13.93 0 0 1 6.92,-2.21 c 3.69,0 6.23,1.09 7.64,3.27 1.41,2.18 2.1,5.53 2.1,10.07 v 15 h -7.42 v -14.78 a 12.33,12.33 0 0 0 -0.83,-5.23 c -0.55,-1.13 -1.64,-1.66 -3.32,-1.66 a 12.46,12.46 0 0 0 -4.37,0.78 l -0.66,0.22 z"
           fill="#5c6062"
           id="path4" />
        <path
           d="m 214.41956,106.77811 v 38.73 h -7.36 v -1.16 a 16.24,16.24 0 0 1 -6.7,1.83 c -4,0 -6.82,-1.17 -8.41,-3.49 -1.59,-2.32 -2.38,-6 -2.38,-11 0,-5 0.95,-8.7 2.85,-11 1.9,-2.3 4.77,-3.46 8.61,-3.46 a 31.35,31.35 0 0 1 4.92,0.55 l 1.05,0.23 v -11.23 z m -8.19,32.07 0.77,-0.16 v -14.54 a 31.55,31.55 0 0 0 -5.42,-0.55 q -4.49,0 -4.48,8 c 0,2.88 0.33,4.92 1,6.14 a 3.46,3.46 0 0 0 3.3,1.83 19.34,19.34 0 0 0 4.83,-0.72 z"
           fill="#5c6062"
           id="path6" />
        <rect
           x="234.48956"
           y="117.84811"
           width="3.26"
           height="27.67"
           fill="#5c6062"
           id="rect8" />
        <path
           d="m 258.13956,120.77811 h -9.24 v 13.67 c 0,3.57 0.26,5.92 0.78,7 0.52,1.08 1.73,1.66 3.65,1.66 l 5.09,-0.38 0.22,2.82 a 40,40 0 0 1 -5.59,0.55 q -4.2,0 -5.84,-2.07 c -1.08,-1.39 -1.63,-4 -1.63,-7.94 v -15.31 h -4.09 v -2.93 h 4.09 v -8.69 h 3.32 v 8.69 h 9.24 z"
           fill="#5c6062"
           id="path10" />
        <circle
           cx="236.11957"
           cy="110.04811"
           r="3.3299999"
           fill="#5c6062"
           id="circle12" />
        <circle
           cx="224.44955"
           cy="141.3681"
           r="4.6599998"
           fill="#6ca9c3"
           id="circle14" />
        <circle
           cx="153.22955"
           cy="110.04811"
           r="4.6599998"
           fill="#5c6062"
           id="circle16" />
        <path
           d="m 84.389558,125.10811 a 10,10 0 0 0 3.58,-8.05 c 0,-3.8 -1.07,-6.61 -3.18,-8.38 -2.11,-1.77 -5.34,-2.6 -9.71,-2.6 a 32,32 0 0 0 -11.68,2 l -0.59,0.23 0.63,7.18 2.35,-0.36 a 45.07,45.07 0 0 1 8,-0.77 c 4.16,0 4.64,1.76 4.64,3.09 a 4.11,4.11 0 0 1 -1.2,2.86 3.4,3.4 0 0 1 -2.59,1.32 h -8.21 v 8 h 8.21 a 5,5 0 0 1 3.31,1 3.18,3.18 0 0 1 1.16,2.61 c 0,1.88 -0.55,4 -4.85,4 a 62.77,62.77 0 0 1 -10.28,-1 l -0.92,-0.15 -0.5,7.46 2.45,0.6 a 39.44,39.44 0 0 0 10.35,1.47 c 4.57,0 8,-1.05 10.09,-3.12 2.09,-2.07 3.19,-5.21 3.19,-9.39 0,-2.46 -0.42,-4.23 -1.29,-5.43 a 10.63,10.63 0 0 0 -2.96,-2.57 z"
           fill="#6ca9c3"
           id="path18" />
        <path
           d="m 121.36956,116.84811 a 14.89,14.89 0 0 0 -2.56,-5.87 10.5,10.5 0 0 0 -5.32,-3.68 27.35,27.35 0 0 0 -8.29,-1.06 H 91.639558 v 39.34 h 13.520002 a 24.93,24.93 0 0 0 8.49,-1.24 10.46,10.46 0 0 0 5.32,-4.16 17.39,17.39 0 0 0 2.46,-6.33 50,50 0 0 0 0.62,-8.6 43.11,43.11 0 0 0 -0.68,-8.4 z m -8.87,8 c 0,2 0,3.64 -0.11,4.84 -0.24,2.78 -0.84,4.69 -1.78,5.7 -1.08,1.21 -2.9,1.82 -5.41,1.82 h -4.19 v -22.69 h 4.19 a 12.55,12.55 0 0 1 4.12,0.54 3.48,3.48 0 0 1 2,1.73 8.54,8.54 0 0 1 1,3.13 45.33,45.33 0 0 1 0.18,4.93 z"
           fill="#6ca9c3"
           id="path20" />
        <path
           d="m 138.16956,116.67811 a 6.06,6.06 0 0 1 0.55,-3 2.42,2.42 0 0 1 2.21,-0.89 c 1.08,0 2.39,0 3.95,0.11 a 9,9 0 0 1 -0.46,-2.81 8.68,8.68 0 0 1 0.62,-3.24 l -1.06,-0.15 a 31.17,31.17 0 0 0 -5.15,-0.56 c -3,0 -5.13,0.76 -6.31,2.27 -1.18,1.51 -1.77,4.26 -1.77,8.25 v 1.19 h -3 v 6.3 h 3 v 21.36 h 7.42 v -21.36 h 6.69 v -6.3 h -6.69 z"
           fill="#5c6062"
           id="path22" />
        <path
           d="m 153.22956,118.84811 a 8.84,8.84 0 0 1 -3.71,-0.82 v 27.44 h 7.41 v -27.4 a 8.82,8.82 0 0 1 -3.7,0.78 z"
           fill="#5c6062"
           id="path24" />
      </g>
      <path
         d="M 2.6219032,-0.03939276 A 4.3153542,4.3153542 0 0 0 1.1270072,0.22519054 1.8520833,1.8520833 0 0 1 -1.4315135,2.7837113 4.3629792,4.3629792 0 0 0 -1.6960969,4.2786072 4.3206458,4.3206458 0 1 0 2.6219032,-0.04203866 Z"
         fill="#5c6062"
         id="path26"
         style="stroke-width:0.264583" />
      <path
         d="m 8.4771322,-4.3759137 -1.479021,2.4235834 a 0.2301875,0.2301875 0 0 1 -0.264583,0.1005416 h -0.01587 a 14.552083,14.552083 0 0 0 -3.15913,-0.5741458 0.238125,0.238125 0 0 1 -0.219604,-0.2434167 V -5.164372 a 0.24077083,0.24077083 0 0 1 0.232833,-0.2460625 17.660937,17.660937 0 0 1 3.899958,0.4365625 c 0.288396,0.068792 0.579438,0.1455209 0.867834,0.2328334 a 0.2460625,0.2460625 0 0 1 0.137583,0.3651249 z"
         fill="#6eb260"
         id="path28"
         style="stroke-width:0.264583" />
      <path
         d="M 15.729361,1.0348155 12.44059,1.9529197 a 0.22754167,0.22754167 0 0 1 -0.243416,-0.082021 10.670646,10.670646 0 0 0 -1.455209,-1.53722906 0.26458333,0.26458333 0 0 1 0.02646,-0.3915834 l 2.616729,-1.76212504 a 0.22754167,0.22754167 0 0 1 0.280458,0.018521 13.7795,13.7795 0 0 1 1.545167,1.58750004 c 0.230187,0.2645833 0.449791,0.5635625 0.656166,0.85725 A 0.24870833,0.24870833 0 0 1 15.729361,1.0348155 Z"
         fill="#6daca8"
         id="path30"
         style="stroke-width:0.264583" />
      <path
         d="m 12.863924,-2.0502262 -2.645834,1.77535424 a 0.2301875,0.2301875 0 0 1 -0.2645828,0 l -0.04498,-0.047625 a 10.911417,10.911417 0 0 0 -2.288646,-1.22237504 0.24870833,0.24870833 0 0 1 -0.0926,-0.365125 l 1.494896,-2.428875 a 0.2301875,0.2301875 0 0 1 0.264583,-0.1005416 13.927667,13.927667 0 0 1 2.4024168,1.1588749 13.692187,13.692187 0 0 1 1.187979,0.8149167 0.26458333,0.26458333 0 0 1 -0.01323,0.4153958 z"
         fill="#6eaf88"
         id="path32"
         style="stroke-width:0.264583" />
      <path
         d="M 17.547048,4.567003 H 13.898445 A 0.23283333,0.23283333 0 0 1 13.684132,4.4188363 11.871854,11.871854 0 0 0 12.776611,2.6963988 0.2460625,0.2460625 0 0 1 12.914195,2.328628 l 3.259666,-0.9101667 a 0.22754167,0.22754167 0 0 1 0.264583,0.111125 c 0.431271,0.746125 0.957792,1.8520834 1.322917,2.6908125 A 0.24341667,0.24341667 0 0 1 17.547048,4.567003 Z"
         fill="#6ca9c3"
         id="path34"
         style="stroke-width:0.264583" />
      <path
         d="m 2.8706112,-5.1432053 v 2.4394583 a 0.238125,0.238125 0 0 1 -0.240771,0.2434167 c -0.470958,0 -0.941916,0 -1.407583,0.039687 a 13.1445,13.1445 0 0 0 -1.825625,0.2645838 l -0.103187,0.021167 a 0.22754167,0.22754167 0 0 1 -0.246063,-0.1058337 L -2.1273677,-4.148372 a 0.26458333,0.26458333 0 0 1 0.1296458,-0.365125 c 0.2645834,-0.092604 0.5291667,-0.174625 0.777875,-0.2513541 A 15.935854,15.935854 0 0 1 0.9338612,-5.227872 q 0.844021,-0.1190625 1.695979,-0.1613958 a 0.24077083,0.24077083 0 0 1 0.240771,0.2460625 z"
         fill="#b0c03c"
         id="path36"
         style="stroke-width:0.264583" />
      <path
         d="m -1.5135344,-2.243372 a 0.2460625,0.2460625 0 0 1 -0.127,0.365125 10.779125,10.779125 0 0 0 -2.3547916,1.05833334 l -0.2883959,0.1852084 a 0.23283333,0.23283333 0 0 1 -0.2645833,0 L -6.170201,-1.7247887 a 0.26458333,0.26458333 0 0 1 -0.018521,-0.396875 c 0.3042709,-0.2645833 0.619125,-0.5053541 0.9445625,-0.7328958 a 12.946062,12.946062 0 0 1 2.3256875,-1.2991042 0.2301875,0.2301875 0 0 1 0.2883959,0.09525 z"
         fill="#e4ca00"
         id="path38"
         style="stroke-width:0.264583" />
      <path
         d="m -8.5329302,4.440003 a 14.234583,14.234583 0 0 1 1.2435417,-2.1166667 0.24870833,0.24870833 0 0 0 -0.127,-0.381 L -8.9747844,1.5084197 a 0.2301875,0.2301875 0 0 0 -0.2645833,0.1137708 24.341667,24.341667 0 0 0 -1.2012083,2.6220208 0.24341667,0.24341667 0 0 0 0.216958,0.3360209 h 1.4869586 A 0.23283333,0.23283333 0 0 0 -8.5329302,4.440003 Z"
         fill="#ee713a"
         id="path40"
         style="stroke-width:0.264583" />
      <path
         d="m -6.6676177,1.4925447 a 11.260667,11.260667 0 0 1 1.571625,-1.52664586 0.26458333,0.26458333 0 0 0 -0.018521,-0.3995208 L -6.6438052,-1.4628512 a 0.23283333,0.23283333 0 0 0 -0.2910417,0.026458 14.245167,14.245167 0 0 0 -1.4816666,1.73831254 c -0.1005417,0.1402291 -0.1957917,0.2831041 -0.2910417,0.4259791 a 0.24870833,0.24870833 0 0 0 0.1349375,0.37570836 l 1.6695208,0.4656666 a 0.22489583,0.22489583 0 0 0 0.2354792,-0.076729 z"
         fill="#eaa328"
         id="path42"
         style="stroke-width:0.264583" />
    </g>
  </g>
</svg>
