<?xml version="1.0" encoding="UTF-8" standalone="no"?>
<!-- Created with Inkscape (http://www.inkscape.org/) -->

<svg
   width="48.000000px"
   height="48.000000px"
   id="svg249"
   version="1.1"
   xmlns:xlink="http://www.w3.org/1999/xlink"
   xmlns="http://www.w3.org/2000/svg"
   xmlns:svg="http://www.w3.org/2000/svg"
   xmlns:rdf="http://www.w3.org/1999/02/22-rdf-syntax-ns#"
   xmlns:cc="http://creativecommons.org/ns#"
   xmlns:dc="http://purl.org/dc/elements/1.1/">
  <defs
     id="defs3">
    <radialGradient
       xlink:href="#linearGradient5060"
       id="radialGradient5031"
       gradientUnits="userSpaceOnUse"
       gradientTransform="matrix(-2.774389,0,0,1.969706,112.7623,-872.8854)"
       cx="605.71429"
       cy="486.64789"
       fx="605.71429"
       fy="486.64789"
       r="117.14286" />
    <linearGradient
       id="linearGradient5060">
      <stop
         style="stop-color:black;stop-opacity:1;"
         offset="0"
         id="stop5062" />
      <stop
         style="stop-color:black;stop-opacity:0;"
         offset="1"
         id="stop5064" />
    </linearGradient>
    <radialGradient
       xlink:href="#linearGradient5060"
       id="radialGradient5029"
       gradientUnits="userSpaceOnUse"
       gradientTransform="matrix(2.774389,0,0,1.969706,-1891.633,-872.8854)"
       cx="605.71429"
       cy="486.64789"
       fx="605.71429"
       fy="486.64789"
       r="117.14286" />
    <linearGradient
       id="linearGradient5048">
      <stop
         style="stop-color:black;stop-opacity:0;"
         offset="0"
         id="stop5050" />
      <stop
         id="stop5056"
         offset="0.5"
         style="stop-color:black;stop-opacity:1;" />
      <stop
         style="stop-color:black;stop-opacity:0;"
         offset="1"
         id="stop5052" />
    </linearGradient>
    <linearGradient
       xlink:href="#linearGradient5048"
       id="linearGradient5027"
       gradientUnits="userSpaceOnUse"
       gradientTransform="matrix(2.774389,0,0,1.969706,-1892.179,-872.8854)"
       x1="302.85715"
       y1="366.64789"
       x2="302.85715"
       y2="609.50507" />
    <linearGradient
       id="linearGradient15662">
      <stop
         style="stop-color:#ffffff;stop-opacity:1.0000000;"
         offset="0.0000000"
         id="stop15664" />
      <stop
         style="stop-color:#f8f8f8;stop-opacity:1.0000000;"
         offset="1.0000000"
         id="stop15666" />
    </linearGradient>
    <radialGradient
       gradientUnits="userSpaceOnUse"
       fy="64.5679"
       fx="20.8921"
       r="5.257"
       cy="64.5679"
       cx="20.8921"
       id="aigrd3">
      <stop
         id="stop15573"
         style="stop-color:#F0F0F0"
         offset="0" />
      <stop
         id="stop15575"
         style="stop-color:#9a9a9a;stop-opacity:1.0000000;"
         offset="1.0000000" />
    </radialGradient>
    <radialGradient
       gradientUnits="userSpaceOnUse"
       fy="114.5684"
       fx="20.8921"
       r="5.256"
       cy="114.5684"
       cx="20.8921"
       id="aigrd2">
      <stop
         id="stop15566"
         style="stop-color:#F0F0F0"
         offset="0" />
      <stop
         id="stop15568"
         style="stop-color:#9a9a9a;stop-opacity:1.0000000;"
         offset="1.0000000" />
    </radialGradient>
    <linearGradient
       id="linearGradient269">
      <stop
         style="stop-color:#a3a3a3;stop-opacity:1.0000000;"
         offset="0.0000000"
         id="stop270" />
      <stop
         style="stop-color:#4c4c4c;stop-opacity:1.0000000;"
         offset="1.0000000"
         id="stop271" />
    </linearGradient>
    <linearGradient
       id="linearGradient259">
      <stop
         style="stop-color:#fafafa;stop-opacity:1.0000000;"
         offset="0.0000000"
         id="stop260" />
      <stop
         style="stop-color:#bbbbbb;stop-opacity:1.0000000;"
         offset="1.0000000"
         id="stop261" />
    </linearGradient>
    <radialGradient
       r="37.751713"
       fy="3.7561285"
       fx="8.8244190"
       cy="3.7561285"
       cx="8.8244190"
       gradientTransform="matrix(0.968273,0.000000,0.000000,1.032767,3.353553,0.646447)"
       gradientUnits="userSpaceOnUse"
       id="radialGradient15656"
       xlink:href="#linearGradient269" />
    <radialGradient
       r="86.708450"
       fy="35.736916"
       fx="33.966679"
       cy="35.736916"
       cx="33.966679"
       gradientTransform="scale(0.960493,1.041132)"
       gradientUnits="userSpaceOnUse"
       id="radialGradient15658"
       xlink:href="#linearGradient259" />
    <radialGradient
       r="38.158695"
       fy="7.2678967"
       fx="8.1435566"
       cy="7.2678967"
       cx="8.1435566"
       gradientTransform="matrix(0.968273,0.000000,0.000000,1.032767,3.353553,0.646447)"
       gradientUnits="userSpaceOnUse"
       id="radialGradient15668"
       xlink:href="#linearGradient15662" />
    <radialGradient
       xlink:href="#aigrd2"
       id="radialGradient2283"
       gradientUnits="userSpaceOnUse"
       gradientTransform="matrix(0.229703,0.000000,0.000000,0.229703,4.613529,3.979808)"
       cx="20.8921"
       cy="114.5684"
       fx="20.8921"
       fy="114.5684"
       r="5.256" />
    <radialGradient
       xlink:href="#aigrd3"
       id="radialGradient2285"
       gradientUnits="userSpaceOnUse"
       gradientTransform="matrix(0.229703,0.000000,0.000000,0.229703,4.613529,3.979808)"
       cx="20.8921"
       cy="64.5679"
       fx="20.8921"
       fy="64.5679"
       r="5.257" />
  </defs>
  <metadata
     id="metadata4">
    <rdf:RDF>
      <cc:Work
         rdf:about="">
        <dc:format>image/svg+xml</dc:format>
        <dc:type
           rdf:resource="http://purl.org/dc/dcmitype/StillImage" />
        <dc:creator>
          <cc:Agent>
            <dc:title>Jakub Steiner</dc:title>
          </cc:Agent>
        </dc:creator>
        <dc:source>http://jimmac.musichall.cz</dc:source>
        <cc:license
           rdf:resource="http://creativecommons.org/licenses/by-sa/2.0/" />
      </cc:Work>
      <cc:License
         rdf:about="http://creativecommons.org/licenses/by-sa/2.0/">
        <cc:permits
           rdf:resource="http://web.resource.org/cc/Reproduction" />
        <cc:permits
           rdf:resource="http://web.resource.org/cc/Distribution" />
        <cc:requires
           rdf:resource="http://web.resource.org/cc/Notice" />
        <cc:requires
           rdf:resource="http://web.resource.org/cc/Attribution" />
        <cc:permits
           rdf:resource="http://web.resource.org/cc/DerivativeWorks" />
        <cc:requires
           rdf:resource="http://web.resource.org/cc/ShareAlike" />
      </cc:License>
    </rdf:RDF>
  </metadata>
  <g
     id="layer6">
    <g
       style="display:inline"
       id="g5022"
       transform="matrix(2.165152e-2,0,0,1.485743e-2,43.0076,42.68539)">
      <rect
         y="-150.69685"
         x="-1559.2523"
         height="478.35718"
         width="1339.6335"
         id="rect4173"
         style="opacity:0.40206185;color:black;fill:url(#linearGradient5027);fill-opacity:1;fill-rule:nonzero;stroke:none;stroke-width:1;stroke-linecap:round;stroke-linejoin:miter;marker:none;marker-start:none;marker-mid:none;marker-end:none;stroke-miterlimit:4;stroke-dasharray:none;stroke-dashoffset:0;stroke-opacity:1;visibility:visible;display:inline;overflow:visible" />
      <path
         id="path5058"
         d="M -219.61876,-150.68038 C -219.61876,-150.68038 -219.61876,327.65041 -219.61876,327.65041 C -76.744594,328.55086 125.78146,220.48075 125.78138,88.454235 C 125.78138,-43.572302 -33.655436,-150.68036 -219.61876,-150.68038 z "
         style="opacity:0.40206185;color:black;fill:url(#radialGradient5029);fill-opacity:1;fill-rule:nonzero;stroke:none;stroke-width:1;stroke-linecap:round;stroke-linejoin:miter;marker:none;marker-start:none;marker-mid:none;marker-end:none;stroke-miterlimit:4;stroke-dasharray:none;stroke-dashoffset:0;stroke-opacity:1;visibility:visible;display:inline;overflow:visible" />
      <path
         style="opacity:0.40206185;color:black;fill:url(#radialGradient5031);fill-opacity:1;fill-rule:nonzero;stroke:none;stroke-width:1;stroke-linecap:round;stroke-linejoin:miter;marker:none;marker-start:none;marker-mid:none;marker-end:none;stroke-miterlimit:4;stroke-dasharray:none;stroke-dashoffset:0;stroke-opacity:1;visibility:visible;display:inline;overflow:visible"
         d="M -1559.2523,-150.68038 C -1559.2523,-150.68038 -1559.2523,327.65041 -1559.2523,327.65041 C -1702.1265,328.55086 -1904.6525,220.48075 -1904.6525,88.454235 C -1904.6525,-43.572302 -1745.2157,-150.68036 -1559.2523,-150.68038 z "
         id="path5018" />
    </g>
  </g>
  <g
     id="layer1"
     style="display:inline">
    <rect
       ry="1.1490486"
       y="3.6464462"
       x="6.6035528"
       height="40.920494"
       width="34.875000"
       id="rect15391"
       style="color:#000000;fill:url(#radialGradient15658);fill-opacity:1.0000000;fill-rule:nonzero;stroke:url(#radialGradient15656);stroke-width:1.0000000;stroke-linecap:round;stroke-linejoin:round;stroke-miterlimit:4.0000000;stroke-dashoffset:0.0000000;stroke-opacity:1.0000000;marker:none;marker-start:none;marker-mid:none;marker-end:none;visibility:visible;display:block;overflow:visible" />
    <rect
       rx="0.14904857"
       ry="0.14904857"
       y="4.5839462"
       x="7.6660538"
       height="38.946384"
       width="32.775887"
       id="rect15660"
       style="color:#000000;fill:none;fill-opacity:1.0000000;fill-rule:nonzero;stroke:url(#radialGradient15668);stroke-width:1.0000000;stroke-linecap:round;stroke-linejoin:round;stroke-miterlimit:4.0000000;stroke-dashoffset:0.0000000;stroke-opacity:1.0000000;marker:none;marker-start:none;marker-mid:none;marker-end:none;visibility:visible;display:block;overflow:visible" />
    <g
       id="g2270"
       transform="translate(0.646447,-3.798933e-2)">
      <g
         transform="matrix(0.229703,0.000000,0.000000,0.229703,4.967081,4.244972)"
         style="fill:#ffffff;fill-opacity:1.0000000;fill-rule:nonzero;stroke:#000000;stroke-miterlimit:4.0000000"
         id="g1440">
        <radialGradient
           gradientUnits="userSpaceOnUse"
           fy="114.56840"
           fx="20.892099"
           r="5.2560000"
           cy="114.56840"
           cx="20.892099"
           id="radialGradient1442">
          <stop
             id="stop1444"
             style="stop-color:#F0F0F0"
             offset="0" />
          <stop
             id="stop1446"
             style="stop-color:#474747"
             offset="1" />
        </radialGradient>
        <path
           id="path1448"
           d="M 23.428000,113.07000 C 23.428000,115.04300 21.828000,116.64200 19.855000,116.64200 C 17.881000,116.64200 16.282000,115.04200 16.282000,113.07000 C 16.282000,111.09600 17.882000,109.49700 19.855000,109.49700 C 21.828000,109.49700 23.428000,111.09700 23.428000,113.07000 z "
           style="stroke:none" />
        <radialGradient
           gradientUnits="userSpaceOnUse"
           fy="64.567902"
           fx="20.892099"
           r="5.2570000"
           cy="64.567902"
           cx="20.892099"
           id="radialGradient1450">
          <stop
             id="stop1452"
             style="stop-color:#F0F0F0"
             offset="0" />
          <stop
             id="stop1454"
             style="stop-color:#474747"
             offset="1" />
        </radialGradient>
        <path
           id="path1456"
           d="M 23.428000,63.070000 C 23.428000,65.043000 21.828000,66.643000 19.855000,66.643000 C 17.881000,66.643000 16.282000,65.043000 16.282000,63.070000 C 16.282000,61.096000 17.882000,59.497000 19.855000,59.497000 C 21.828000,59.497000 23.428000,61.097000 23.428000,63.070000 z "
           style="stroke:none" />
      </g>
      <path
         id="path15570"
         d="M 9.9950109,29.952326 C 9.9950109,30.405530 9.6274861,30.772825 9.1742821,30.772825 C 8.7208483,30.772825 8.3535532,30.405301 8.3535532,29.952326 C 8.3535532,29.498892 8.7210780,29.131597 9.1742821,29.131597 C 9.6274861,29.131597 9.9950109,29.499122 9.9950109,29.952326 z "
         style="fill:url(#radialGradient2283);fill-rule:nonzero;stroke:none;stroke-miterlimit:4.0000000" />
      <path
         id="path15577"
         d="M 9.9950109,18.467176 C 9.9950109,18.920380 9.6274861,19.287905 9.1742821,19.287905 C 8.7208483,19.287905 8.3535532,18.920380 8.3535532,18.467176 C 8.3535532,18.013742 8.7210780,17.646447 9.1742821,17.646447 C 9.6274861,17.646447 9.9950109,18.013972 9.9950109,18.467176 z "
         style="fill:url(#radialGradient2285);fill-rule:nonzero;stroke:none;stroke-miterlimit:4.0000000" />
    </g>
    <path
       id="path15672"
       d="M 11.505723,5.4942766 L 11.505723,43.400869"
       style="fill:none;fill-opacity:0.75000000;fill-rule:evenodd;stroke:#000000;stroke-width:0.98855311;stroke-linecap:butt;stroke-linejoin:miter;stroke-miterlimit:4.0000000;stroke-opacity:0.017543854" />
    <path
       id="path15674"
       d="M 12.500000,5.0205154 L 12.500000,43.038228"
       style="fill:none;fill-opacity:0.75000000;fill-rule:evenodd;stroke:#ffffff;stroke-width:1.0000000;stroke-linecap:butt;stroke-linejoin:miter;stroke-miterlimit:4.0000000;stroke-opacity:0.20467831" />
  </g>
  <g
     id="layer4"
     style="display:inline">
    <path
       class="cls-1"
       d="m 28.105587,21.689095 -2.745638,-2.728006 0.01258,-0.01258 -2.094336,-2.081018 -0.383437,0.386321 a 2.4259259,2.4259353 0 0 0 0.01117,3.430802 l 3.119002,3.098844 z"
       id="path1"
       style="font-variation-settings:normal;display:inline;vector-effect:none;fill:#e62531;fill-opacity:1;stroke:none;stroke-width:2;stroke-linecap:round;stroke-linejoin:round;stroke-miterlimit:4;stroke-dasharray:none;stroke-dashoffset:0;stroke-opacity:1;-inkscape-stroke:none;stop-color:#000000" />
    <path
       class="cls-1"
       d="M 37.364282,18.19961 31.33043,12.204979 a 2.4259259,2.4259353 0 0 0 -3.430784,0.01117 l -2.033128,2.046455 2.094336,2.080658 1.662287,-1.673095 5.286775,5.254753 -6.343844,6.383468 0.373362,0.370843 a 2.4262861,2.4262954 0 0 0 3.431148,-0.01117 l 5.004505,-5.037656 a 2.4259259,2.4259353 0 0 0 -0.01083,-3.430798 z"
       id="path2"
       style="display:inline;fill:#e62531;stroke:none;stroke-width:2;stroke-linecap:round;stroke-linejoin:round;stroke-dasharray:none;stroke-opacity:1" />
    <path
       class="cls-2"
       d="m 23.869038,26.310898 2.74564,2.728012 -0.01262,0.01262 2.094331,2.08066 0.384884,-0.385963 a 2.4259259,2.4259353 0 0 0 -0.01117,-3.430797 l -3.121157,-3.098851 z"
       id="path3"
       style="font-variation-settings:normal;display:inline;vector-effect:none;fill:#b62f88;fill-opacity:1;stroke:none;stroke-width:2;stroke-linecap:round;stroke-linejoin:round;stroke-miterlimit:4;stroke-dasharray:none;stroke-dashoffset:0;stroke-opacity:1;-inkscape-stroke:none;stop-color:#000000" />
    <path
       class="cls-2"
       d="m 14.610336,29.800385 6.033853,5.994635 a 2.4259259,2.4259353 0 0 0 3.430789,-0.01117 l 2.033123,-2.046457 -2.09433,-2.080656 -1.662286,1.673097 -5.286777,-5.252953 6.343843,-6.385272 -0.373357,-0.370843 a 2.4259259,2.4259353 0 0 0 -3.430789,0.01117 l -5.004869,5.037652 a 2.4259259,2.4259353 0 0 0 0.01079,3.430798 z"
       id="path4"
       style="display:inline;fill:#b62f88;stroke:none;stroke-width:2;stroke-linecap:round;stroke-linejoin:round;stroke-dasharray:none;stroke-opacity:1" />
    <path
       class="cls-3"
       d="m 23.752746,21.856154 -2.727996,2.745649 -0.01262,-0.01296 -2.08101,2.09434 0.38632,0.383804 a 2.4259259,2.4259353 0 0 0 3.43079,-0.01117 l 3.098832,-3.119007 z"
       id="path5"
       style="font-variation-settings:normal;display:inline;vector-effect:none;fill:#0063a7;fill-opacity:1;stroke:none;stroke-width:2;stroke-linecap:round;stroke-linejoin:round;stroke-miterlimit:4;stroke-dasharray:none;stroke-dashoffset:0;stroke-opacity:1;-inkscape-stroke:none;stop-color:#000000" />
    <path
       class="cls-3"
       d="m 20.263274,12.597416 -5.994607,6.033519 a 2.4262861,2.4262954 0 0 0 0.01117,3.43116 l 2.046446,2.032773 2.080649,-2.094339 -1.673086,-1.661934 5.254733,-5.287159 6.383446,6.343871 0.370837,-0.373004 a 2.4262861,2.4262954 0 0 0 -0.01117,-3.431157 l -5.037633,-5.00453 a 2.4259259,2.4259353 0 0 0 -3.430785,0.01079 z"
       id="path6"
       style="display:inline;fill:#0063a7;stroke:none;stroke-width:2;stroke-linecap:round;stroke-linejoin:round;stroke-dasharray:none;stroke-opacity:1" />
    <path
       class="cls-4"
       d="m 28.24744,26.117562 2.727638,-2.745648 0.01296,0.01296 2.080651,-2.091819 -0.38704,-0.385604 a 2.4262861,2.4262954 0 0 0 -3.431148,0.01117 l -3.098477,3.119008 z"
       id="path16"
       style="font-variation-settings:normal;display:inline;vector-effect:none;fill:#00a3b7;fill-opacity:1;stroke:none;stroke-width:2;stroke-linecap:round;stroke-linejoin:round;stroke-miterlimit:4;stroke-dasharray:none;stroke-dashoffset:0;stroke-opacity:1;-inkscape-stroke:none;stop-color:#000000" />
    <path
       class="cls-4"
       d="m 31.736913,35.377018 5.994253,-6.033522 a 2.4262861,2.4262954 0 0 0 -0.01083,-3.43116 l -2.046445,-2.032768 -2.080648,2.093977 1.672728,1.661935 -5.252572,5.286799 -6.385245,-6.343151 -0.370839,0.373 a 2.4259259,2.4259353 0 0 0 0.01116,3.431162 l 5.037276,5.004525 a 2.4262861,2.4262954 0 0 0 3.431143,-0.01083 z"
       id="path17"
       style="display:inline;fill:#00a3b7;stroke:none;stroke-width:2;stroke-linecap:round;stroke-linejoin:round;stroke-dasharray:none;stroke-opacity:1" />
  </g>
</svg>
