<svg width="130" height="100" viewBox="0 0 130 100" fill="none" xmlns="http://www.w3.org/2000/svg">
<path d="M125.161 100H4.27789C3.20289 100 2.17193 99.5729 1.41179 98.8128C0.651651 98.0527 0.224609 97.0217 0.224609 95.9467C44.0448 90.8539 87.0415 90.8539 129.215 95.9467C129.215 97.0217 128.788 98.0527 128.027 98.8128C127.267 99.5729 126.236 100 125.161 100Z" fill="#2F2E41"/>
<path d="M129.215 96.1851L0.224609 95.9467L15.1741 70.7925L15.2456 70.6733V15.2362C15.2456 14.5633 15.3781 13.897 15.6355 13.2753C15.893 12.6536 16.2704 12.0888 16.7462 11.613C17.222 11.1372 17.7869 10.7598 18.4086 10.5023C19.0303 10.2448 19.6966 10.1123 20.3695 10.1124H108.354C109.027 10.1123 109.694 10.2448 110.315 10.5023C110.937 10.7598 111.502 11.1372 111.978 11.613C112.453 12.0888 112.831 12.6536 113.088 13.2753C113.346 13.897 113.478 14.5633 113.478 15.2362V71.0547L129.215 96.1851Z" fill="#444354"/>
<path d="M20.2439 13.6888C19.8037 13.6893 19.3816 13.8653 19.0703 14.1782C18.759 14.4911 18.5839 14.9153 18.5834 15.3578V65.9047C18.5839 66.3472 18.7591 66.7714 19.0703 67.0843C19.3816 67.3972 19.8037 67.5732 20.2439 67.5737H108.723C109.163 67.5732 109.585 67.3972 109.897 67.0843C110.208 66.7714 110.383 66.3472 110.383 65.9047V15.3578C110.383 14.9154 110.208 14.4911 109.897 14.1783C109.585 13.8654 109.163 13.6894 108.723 13.6888H20.2439Z" fill="#EAEAEA"/>
<path d="M20.8372 74.2497C20.7005 74.2499 20.5667 74.2892 20.4516 74.363C20.3364 74.4368 20.2448 74.5419 20.1874 74.666L15.581 84.68C15.5308 84.789 15.5089 84.9088 15.5172 85.0285C15.5255 85.1482 15.5638 85.2638 15.6285 85.3649C15.6932 85.4659 15.7823 85.549 15.8875 85.6065C15.9927 85.6641 16.1108 85.6943 16.2307 85.6943H113.101C113.223 85.6943 113.343 85.6631 113.449 85.6037C113.556 85.5444 113.645 85.4587 113.709 85.355C113.773 85.2513 113.81 85.1329 113.815 85.0111C113.821 84.8893 113.795 84.7681 113.741 84.6591L108.734 74.6451C108.674 74.526 108.583 74.4259 108.47 74.356C108.357 74.2861 108.227 74.2493 108.094 74.2497L20.8372 74.2497Z" fill="#2F2E41"/>
<path d="M64.3621 12.8543C64.9546 12.8543 65.435 12.3739 65.435 11.7814C65.435 11.1888 64.9546 10.7084 64.3621 10.7084C63.7695 10.7084 63.2892 11.1888 63.2892 11.7814C63.2892 12.3739 63.7695 12.8543 64.3621 12.8543Z" fill="white"/>
<path d="M54.8407 87.6017C54.6834 87.6019 54.5306 87.6538 54.4058 87.7494C54.281 87.8451 54.1912 87.9791 54.1501 88.1309L52.9946 92.4226C52.966 92.5287 52.9623 92.6398 52.9836 92.7475C53.0049 92.8552 53.0507 92.9566 53.1175 93.0438C53.1842 93.1309 53.2702 93.2015 53.3686 93.2501C53.4671 93.2987 53.5754 93.324 53.6852 93.324H75.6597C75.7737 93.324 75.8861 93.2967 75.9874 93.2444C76.0888 93.1922 76.1761 93.1164 76.2423 93.0235C76.3084 92.9306 76.3513 92.8233 76.3675 92.7104C76.3837 92.5975 76.3727 92.4824 76.3354 92.3747L74.8498 88.083C74.8011 87.9425 74.7099 87.8206 74.5887 87.7344C74.4676 87.6481 74.3226 87.6017 74.1739 87.6017H54.8407Z" fill="#2F2E41"/>
<path d="M113.478 69.8387V70.7926H15.1742L15.2481 70.6732V69.8387H113.478Z" fill="#2F2E41"/>
<path d="M93.5315 72.0235C93.4932 72.0235 93.456 72.0362 93.4256 72.0595C93.3952 72.0828 93.3733 72.1154 93.3633 72.1524L93.082 73.1975C93.075 73.2233 93.0741 73.2504 93.0793 73.2766C93.0845 73.3028 93.0956 73.3275 93.1119 73.3487C93.1281 73.3699 93.1491 73.3871 93.173 73.399C93.197 73.4108 93.2234 73.417 93.2501 73.417H98.6012C98.629 73.417 98.6564 73.4103 98.681 73.3976C98.7057 73.3849 98.727 73.3664 98.7431 73.3438C98.7592 73.3212 98.7697 73.295 98.7736 73.2676C98.7776 73.2401 98.7749 73.212 98.7658 73.1858L98.404 72.1407C98.3922 72.1065 98.3699 72.0768 98.3405 72.0558C98.311 72.0348 98.2756 72.0235 98.2394 72.0235H93.5315Z" fill="#2F2E41"/>
<path fill-rule="evenodd" clip-rule="evenodd" d="M73.3319 0.585788C72.9568 0.210715 72.4481 0 71.9177 0H38.0561C36.3992 0 35.0561 1.34315 35.0561 3.00001V67.6629C35.0561 68.7675 35.9515 69.6629 37.0561 69.6629H91.483C92.5876 69.6629 93.483 68.7675 93.483 67.6629V21.5654C93.483 21.0349 93.2723 20.5262 92.8972 20.1511L73.3319 0.585788Z" fill="#F04839"/>
<path opacity="0.15" fill-rule="evenodd" clip-rule="evenodd" d="M73.3357 0.609157C72.9589 0.219817 72.4403 0 71.8985 0H38.0561C36.3992 0 35.0561 1.34315 35.0561 3.00001V67.6629C35.0561 68.7675 35.9515 69.6629 37.0561 69.6629H91.483C92.5876 69.6629 93.483 68.7675 93.483 67.6629V22.2374C93.483 21.7183 93.2812 21.2196 92.9202 20.8466L73.3357 0.609157Z" fill="black"/>
<path fill-rule="evenodd" clip-rule="evenodd" d="M73.2585 0.512268V17.2247C73.2585 18.8816 74.6016 20.2247 76.2585 20.2247H92.9709L73.2585 0.512268Z" fill="#F04839"/>
<path d="M78.8763 30.902L64.2688 39.3322V56.8543L78.8763 48.4242V30.902Z" fill="white"/>
<path opacity="0.3" d="M78.8763 30.902L64.2688 39.3322V56.8543L78.8763 48.4242V30.902Z" fill="black"/>
<path d="M64.2686 39.3322L49.6626 30.902V48.4242L64.2686 56.8543V39.3322Z" fill="white"/>
<path opacity="0.15" d="M64.2686 39.3322L49.6626 30.902V48.4242L64.2686 56.8543V39.3322Z" fill="black"/>
<path d="M64.2688 22.4719L78.8762 30.9021L64.2688 39.3322L49.6628 30.9021L64.2688 22.4719Z" fill="white"/>
<path d="M109.213 67.5731V69.8203H19.3257L19.3933 69.5392V67.5731H109.213Z" fill="#444354"/>
</svg>
